# xmcd CD database file
#
# Track frame offsets:
#	150
#	27732
#	47932
#	65515
#	88570
#	111432
#	131037
#	154120
#	172392
#	188432
#	208500
#	229462
#	248365
#
# Disc length: 3666 seconds
#
# Revision: 2
# Processed by: cddbd v1.5.2PL0 Copyright (c) Steve Scherf et al.
# Submitted via: CDex 1.77
#
DISCID=bb0e500d
DTITLE=Dion, Celine - Celine Dion
DYEAR=1992
DGENRE=Blues
TTITLE0=Love Can Move Mountains - Dion, Celine
TTITLE1=Show Some Emotion - Dion, Celine
TTITLE2=If You Asked Me To - Dion, Celine
TTITLE3=If You Could See Me Now - Dion, Celine
TTITLE4=Halfway To Heaven - Dion, Celine
TTITLE5=Did You Give Enough Love - Dion, Celine
TTITLE6=If I Were You - Dion, Celine
TTITLE7=Beauty And The Beast - Dion, Celine
TTITLE8=I Love You, Goodbye - Dion, Celine
TTITLE9=Little Bit Of Love - Dion, Celine
TTITLE10=Water From The Moon - Dion, Celine
TTITLE11=With This Tear - Dion, Celine
TTITLE12=Nothing Broken But My Heart - Dion, Celine
EXTD=YEAR: 1992
EXTT0=
EXTT1=
EXTT2=
EXTT3=
EXTT4=
EXTT5=
EXTT6=
EXTT7=e Dion and Peabo Bryson.
EXTT8=
EXTT9=
EXTT10=
EXTT11=
EXTT12=
PLAYORDER=
